<svg width="80" height="80" viewBox="0 0 80 80" fill="none" xmlns="http://www.w3.org/2000/svg">
<rect width="80" height="80" rx="30" fill="black"/>
<path d="M33.3349 40C33.3349 36.3183 36.3189 33.3328 40.0008 33.3328C43.6827 33.3328 46.6683 36.3183 46.6683 40C46.6683 43.6817 43.6827 46.6672 40.0008 46.6672C36.3189 46.6672 33.3349 43.6817 33.3349 40ZM29.7306 40C29.7306 45.6721 34.3285 50.2698 40.0008 50.2698C45.6731 50.2698 50.271 45.6721 50.271 40C50.271 34.3279 45.6731 29.7302 40.0008 29.7302C34.3285 29.7302 29.7306 34.3279 29.7306 40ZM48.2774 29.3231C48.2774 30.6478 49.3518 31.7237 50.6781 31.7237C52.0029 31.7237 53.0789 30.6478 53.0789 29.3231C53.0789 27.9984 52.0045 26.9241 50.6781 26.9241C49.3518 26.9241 48.2774 27.9984 48.2774 29.3231ZM31.9197 56.2795C29.9697 56.1906 28.9099 55.8659 28.2055 55.5913C27.2717 55.2278 26.6061 54.7948 25.9049 54.0953C25.2054 53.3958 24.7708 52.7302 24.4089 51.7964C24.1343 51.0921 23.8095 50.0323 23.7207 48.0824C23.6237 45.9742 23.6043 45.3409 23.6043 40C23.6043 34.6591 23.6253 34.0275 23.7207 31.9176C23.8095 29.9677 24.1359 28.9095 24.4089 28.2036C24.7724 27.2698 25.2054 26.6042 25.9049 25.9031C26.6045 25.2036 27.2701 24.769 28.2055 24.4071C28.9099 24.1325 29.9697 23.8078 31.9197 23.7189C34.028 23.622 34.6613 23.6026 40.0008 23.6026C45.3419 23.6026 45.9736 23.6236 48.0835 23.7189C50.0335 23.8078 51.0917 24.1341 51.7977 24.4071C52.7315 24.769 53.3972 25.2036 54.0983 25.9031C54.7979 26.6026 55.2308 27.2698 55.5943 28.2036C55.869 28.9079 56.1937 29.9677 56.2826 31.9176C56.3795 34.0275 56.3989 34.6591 56.3989 40C56.3989 45.3393 56.3795 45.9725 56.2826 48.0824C56.1937 50.0323 55.8674 51.0921 55.5943 51.7964C55.2308 52.7302 54.7979 53.3958 54.0983 54.0953C53.3988 54.7948 52.7315 55.2278 51.7977 55.5913C51.0933 55.8659 50.0335 56.1906 48.0835 56.2795C45.9752 56.3764 45.3419 56.3958 40.0008 56.3958C34.6613 56.3958 34.028 56.3764 31.9197 56.2795ZM31.7549 20.1212C29.6256 20.2181 28.1716 20.5557 26.9001 21.0501C25.585 21.5606 24.4703 22.2456 23.3572 23.357C22.2456 24.4685 21.5606 25.5832 21.0501 26.8998C20.5558 28.1712 20.2181 29.6252 20.1212 31.7544C20.0226 33.8869 20 34.5687 20 40C20 45.4313 20.0226 46.1131 20.1212 48.2456C20.2181 50.3748 20.5558 51.8288 21.0501 53.1002C21.5606 54.4152 22.244 55.5315 23.3572 56.643C24.4687 57.7544 25.5834 58.4378 26.9001 58.9499C28.1732 59.4443 29.6256 59.7819 31.7549 59.8788C33.8891 59.9758 34.5692 60 40.0008 60C45.434 60 46.1141 59.9774 48.2467 59.8788C50.376 59.7819 51.83 59.4443 53.1015 58.9499C54.4166 58.4378 55.5313 57.7544 56.6445 56.643C57.756 55.5315 58.4394 54.4152 58.9515 53.1002C59.4459 51.8288 59.7851 50.3748 59.8805 48.2456C59.9774 46.1115 60 45.4313 60 40C60 34.5687 59.9774 33.8869 59.8805 31.7544C59.7835 29.6252 59.4459 28.1712 58.9515 26.8998C58.4394 25.5848 57.756 24.4701 56.6445 23.357C55.5329 22.2456 54.4166 21.5606 53.1031 21.0501C51.83 20.5557 50.376 20.2165 48.2483 20.1212C46.1158 20.0242 45.434 20 40.0024 20C34.5692 20 33.8891 20.0226 31.7549 20.1212Z" fill="white"/>
</svg>
