<svg width="80" height="80" viewBox="0 0 80 80" fill="none" xmlns="http://www.w3.org/2000/svg">
<rect width="80" height="80" rx="30" fill="black"/>
<path d="M63 25.5724C61.3088 26.3062 59.5202 26.7912 57.69 27.0124C59.6209 25.8589 61.0679 24.0442 61.7625 21.9049C59.948 22.9851 57.9617 23.7461 55.89 24.1549C54.5052 22.6532 52.6612 21.6536 50.6471 21.3129C48.633 20.9721 46.5627 21.3095 44.761 22.2721C42.9593 23.2347 41.5281 24.7681 40.6918 26.6318C39.8555 28.4955 39.6614 30.5841 40.14 32.5699C36.4712 32.3844 32.8825 31.4291 29.607 29.7661C26.3315 28.1032 23.4424 25.7698 21.1275 22.9174C20.3156 24.3353 19.8889 25.941 19.89 27.5749C19.8871 29.0923 20.2595 30.5868 20.9739 31.9255C21.6884 33.2641 22.7228 34.4053 23.985 35.2474C22.5179 35.2075 21.0822 34.8139 19.8 34.0999V34.2124C19.811 36.3384 20.556 38.3954 21.909 40.0354C23.2619 41.6753 25.1398 42.7976 27.225 43.2124C26.4223 43.4567 25.589 43.5855 24.75 43.5949C24.1693 43.5882 23.59 43.5355 23.0175 43.4374C23.6113 45.2663 24.7604 46.8645 26.3049 48.0098C27.8494 49.1551 29.7125 49.7904 31.635 49.8274C28.3887 52.3818 24.3807 53.7759 20.25 53.7874C19.4979 53.7899 18.7464 53.7448 18 53.6524C22.2175 56.3755 27.1323 57.8211 32.1525 57.8149C35.6168 57.8509 39.0536 57.1962 42.262 55.8891C45.4705 54.582 48.3863 52.6487 50.8392 50.2021C53.2921 47.7554 55.2329 44.8446 56.5483 41.6395C57.8636 38.4344 58.5271 34.9993 58.5 31.5349C58.5 31.1524 58.5 30.7474 58.5 30.3424C60.2656 29.0258 61.7883 27.4117 63 25.5724Z" fill="white"/>
</svg>
